<svg id="visual" viewBox="0 0 1400 300" width="1400" height="300" xmlns="http://www.w3.org/2000/svg" xmlns:xlink="http://www.w3.org/1999/xlink" version="1.1"><rect x="0" y="0" width="1400" height="300" fill="#16161a"></rect><path d="M0 126L200 114L400 114L600 134L800 147L1000 109L1200 143L1400 122L1400 301L1200 301L1000 301L800 301L600 301L400 301L200 301L0 301Z" fill="#2cb67d"></path><path d="M0 128L200 156L400 169L600 153L800 177L1000 173L1200 142L1400 130L1400 301L1200 301L1000 301L800 301L600 301L400 301L200 301L0 301Z" fill="#009186"></path><path d="M0 171L200 156L400 211L600 218L800 203L1000 155L1200 172L1400 173L1400 301L1200 301L1000 301L800 301L600 301L400 301L200 301L0 301Z" fill="#006b77"></path><path d="M0 209L200 234L400 195L600 222L800 204L1000 242L1200 224L1400 243L1400 301L1200 301L1000 301L800 301L600 301L400 301L200 301L0 301Z" fill="#274654"></path><path d="M0 274L200 251L400 273L600 252L800 244L1000 263L1200 274L1400 262L1400 301L1200 301L1000 301L800 301L600 301L400 301L200 301L0 301Z" fill="#242629"></path></svg>